<svg width="238" height="59" viewBox="0 0 238 59" fill="none" xmlns="http://www.w3.org/2000/svg">
<path d="M71.91 15.34C74.03 15.34 75.88 15.77 77.46 16.63C79.06 17.49 80.3 18.73 81.18 20.35C82.06 21.95 82.5 23.9 82.5 26.2C82.5 28.44 82.05 30.4 81.15 32.08C80.25 33.76 78.99 35.07 77.37 36.01C75.77 36.95 73.94 37.42 71.88 37.42C69.76 37.42 67.9 36.99 66.3 36.13C64.72 35.27 63.49 34.03 62.61 32.41C61.73 30.79 61.29 28.84 61.29 26.56C61.29 24.32 61.74 22.36 62.64 20.68C63.56 19 64.81 17.69 66.39 16.75C67.99 15.81 69.83 15.34 71.91 15.34ZM71.79 15.88C70.67 15.88 69.69 16.33 68.85 17.23C68.03 18.13 67.39 19.37 66.93 20.95C66.49 22.53 66.27 24.36 66.27 26.44C66.27 28.56 66.52 30.41 67.02 31.99C67.54 33.55 68.23 34.76 69.09 35.62C69.97 36.46 70.94 36.88 72 36.88C73.12 36.88 74.09 36.43 74.91 35.53C75.75 34.63 76.39 33.39 76.83 31.81C77.29 30.21 77.52 28.38 77.52 26.32C77.52 24.18 77.26 22.33 76.74 20.77C76.24 19.21 75.55 18.01 74.67 17.17C73.81 16.31 72.85 15.88 71.79 15.88ZM94.1891 21.07C94.8291 21.07 95.3491 21.21 95.7491 21.49C96.1491 21.75 96.4391 22.09 96.6191 22.51C96.8191 22.93 96.9191 23.37 96.9191 23.83C96.9191 24.57 96.6991 25.18 96.2591 25.66C95.8391 26.12 95.2791 26.35 94.5791 26.35C93.8791 26.35 93.3291 26.18 92.9291 25.84C92.5491 25.48 92.3591 25.01 92.3591 24.43C92.3591 23.87 92.4791 23.41 92.7191 23.05C92.9791 22.67 93.2991 22.35 93.6791 22.09C93.3991 22.01 93.1191 22.02 92.8391 22.12C92.3191 22.2 91.8491 22.45 91.4291 22.87C91.0291 23.27 90.7091 23.75 90.4691 24.31C90.2291 24.87 90.1091 25.42 90.1091 25.96V33.91C90.1091 34.87 90.3391 35.52 90.7991 35.86C91.2791 36.2 91.9891 36.37 92.9291 36.37V37C92.4691 36.98 91.7991 36.96 90.9191 36.94C90.0391 36.9 89.1191 36.88 88.1591 36.88C87.3591 36.88 86.5491 36.9 85.7291 36.94C84.9091 36.96 84.2891 36.98 83.8691 37V36.37C84.5691 36.37 85.0591 36.22 85.3391 35.92C85.6391 35.62 85.7891 35.05 85.7891 34.21V24.76C85.7891 23.86 85.6491 23.2 85.3691 22.78C85.1091 22.34 84.6091 22.12 83.8691 22.12V21.49C84.5091 21.55 85.1291 21.58 85.7291 21.58C86.5691 21.58 87.3491 21.55 88.0691 21.49C88.8091 21.41 89.4891 21.3 90.1091 21.16V23.95C90.3491 23.41 90.6691 22.92 91.0691 22.48C91.4691 22.04 91.9291 21.7 92.4491 21.46C92.9691 21.2 93.5491 21.07 94.1891 21.07ZM103.053 42.64C101.813 42.64 100.703 42.53 99.723 42.31C98.763 42.11 98.003 41.79 97.443 41.35C96.903 40.93 96.633 40.41 96.633 39.79C96.633 39.17 96.913 38.61 97.473 38.11C98.033 37.63 98.863 37.25 99.963 36.97L100.233 37.45C99.853 37.75 99.573 38.07 99.393 38.41C99.233 38.77 99.153 39.14 99.153 39.52C99.153 40.36 99.533 41 100.293 41.44C101.073 41.9 102.123 42.13 103.443 42.13C104.343 42.13 105.143 42.01 105.843 41.77C106.563 41.53 107.123 41.17 107.523 40.69C107.943 40.21 108.153 39.62 108.153 38.92C108.153 38.32 107.933 37.81 107.493 37.39C107.053 36.99 106.173 36.79 104.853 36.79H102.993C102.173 36.79 101.453 36.7 100.833 36.52C100.233 36.34 99.763 36.06 99.423 35.68C99.083 35.28 98.913 34.78 98.913 34.18C98.913 33.34 99.243 32.6 99.903 31.96C100.563 31.32 101.543 30.72 102.843 30.16L103.143 30.4C102.763 30.64 102.403 30.9 102.063 31.18C101.743 31.44 101.583 31.78 101.583 32.2C101.583 32.84 101.983 33.16 102.783 33.16H106.053C107.713 33.16 109.093 33.47 110.193 34.09C111.293 34.69 111.843 35.7 111.843 37.12C111.843 38.1 111.523 39.01 110.883 39.85C110.263 40.69 109.303 41.36 108.003 41.86C106.703 42.38 105.053 42.64 103.053 42.64ZM103.353 30.61C101.653 30.61 100.233 30.23 99.093 29.47C97.953 28.69 97.383 27.48 97.383 25.84C97.383 24.18 97.953 22.97 99.093 22.21C100.233 21.45 101.653 21.07 103.353 21.07C105.073 21.07 106.493 21.45 107.613 22.21C108.753 22.97 109.323 24.18 109.323 25.84C109.323 27.48 108.753 28.69 107.613 29.47C106.493 30.23 105.073 30.61 103.353 30.61ZM103.353 30.07C103.893 30.07 104.313 29.77 104.613 29.17C104.913 28.55 105.063 27.44 105.063 25.84C105.063 24.24 104.913 23.14 104.613 22.54C104.313 21.92 103.893 21.61 103.353 21.61C102.833 21.61 102.413 21.92 102.093 22.54C101.793 23.14 101.643 24.24 101.643 25.84C101.643 27.44 101.793 28.55 102.093 29.17C102.413 29.77 102.833 30.07 103.353 30.07ZM108.033 23.65L107.433 23.44C107.733 22.66 108.213 22.01 108.873 21.49C109.553 20.97 110.283 20.71 111.063 20.71C111.703 20.71 112.183 20.89 112.503 21.25C112.843 21.59 113.013 22.04 113.013 22.6C113.013 23.2 112.853 23.65 112.533 23.95C112.213 24.23 111.853 24.37 111.453 24.37C111.113 24.37 110.793 24.25 110.493 24.01C110.213 23.77 110.053 23.41 110.013 22.93C109.973 22.43 110.143 21.79 110.523 21.01L110.733 21.19C109.973 21.47 109.403 21.8 109.023 22.18C108.643 22.54 108.313 23.03 108.033 23.65ZM116.842 37.21C115.502 37.21 114.532 36.86 113.932 36.16C113.332 35.46 113.032 34.61 113.032 33.61C113.032 32.75 113.222 32.05 113.602 31.51C114.002 30.97 114.512 30.53 115.132 30.19C115.752 29.83 116.402 29.54 117.082 29.32C117.782 29.08 118.442 28.85 119.062 28.63C119.702 28.39 120.212 28.12 120.592 27.82C120.992 27.52 121.192 27.14 121.192 26.68V24.34C121.192 23.82 121.102 23.36 120.922 22.96C120.762 22.54 120.502 22.22 120.142 22C119.802 21.78 119.352 21.67 118.792 21.67C118.392 21.67 117.992 21.73 117.592 21.85C117.192 21.95 116.862 22.13 116.602 22.39C117.162 22.59 117.592 22.9 117.892 23.32C118.212 23.72 118.372 24.18 118.372 24.7C118.372 25.38 118.132 25.92 117.652 26.32C117.192 26.72 116.642 26.92 116.002 26.92C115.282 26.92 114.732 26.7 114.352 26.26C113.992 25.8 113.812 25.25 113.812 24.61C113.812 24.03 113.952 23.55 114.232 23.17C114.532 22.79 114.942 22.43 115.462 22.09C116.022 21.77 116.692 21.52 117.472 21.34C118.272 21.16 119.132 21.07 120.052 21.07C120.972 21.07 121.802 21.17 122.542 21.37C123.282 21.55 123.902 21.89 124.402 22.39C124.862 22.85 125.162 23.42 125.302 24.1C125.442 24.76 125.512 25.6 125.512 26.62V34.78C125.512 35.26 125.562 35.6 125.662 35.8C125.762 36 125.932 36.1 126.172 36.1C126.372 36.1 126.562 36.05 126.742 35.95C126.922 35.85 127.092 35.73 127.252 35.59L127.552 36.1C127.132 36.46 126.642 36.74 126.082 36.94C125.542 37.12 124.932 37.21 124.252 37.21C123.052 37.21 122.252 36.97 121.852 36.49C121.472 35.99 121.272 35.42 121.252 34.78C120.752 35.6 120.132 36.21 119.392 36.61C118.672 37.01 117.822 37.21 116.842 37.21ZM119.152 35.29C119.532 35.29 119.882 35.2 120.202 35.02C120.542 34.84 120.872 34.52 121.192 34.06V27.91C120.952 28.31 120.612 28.65 120.172 28.93C119.752 29.19 119.312 29.48 118.852 29.8C118.412 30.1 118.042 30.49 117.742 30.97C117.442 31.45 117.292 32.09 117.292 32.89C117.292 33.75 117.472 34.37 117.832 34.75C118.192 35.11 118.632 35.29 119.152 35.29ZM144.119 15.76C144.039 16.66 143.979 17.53 143.939 18.37C143.919 19.21 143.909 19.86 143.909 20.32C143.909 20.76 143.919 21.18 143.939 21.58C143.959 21.98 143.979 22.32 143.999 22.6H143.309C143.049 21.04 142.689 19.82 142.229 18.94C141.769 18.04 141.199 17.4 140.519 17.02C139.859 16.64 139.069 16.45 138.149 16.45H137.159C136.579 16.45 136.139 16.5 135.839 16.6C135.539 16.7 135.339 16.9 135.239 17.2C135.139 17.5 135.089 17.96 135.089 18.58V33.64C135.089 34.42 135.169 35 135.329 35.38C135.489 35.76 135.799 36.01 136.259 36.13C136.719 36.25 137.399 36.32 138.299 36.34V37C137.679 36.98 136.879 36.96 135.899 36.94C134.919 36.92 133.889 36.91 132.809 36.91C131.949 36.91 131.109 36.92 130.289 36.94C129.469 36.96 128.729 36.98 128.069 37V36.4C128.709 36.36 129.189 36.28 129.509 36.16C129.829 36.04 130.039 35.8 130.139 35.44C130.259 35.08 130.319 34.54 130.319 33.82V18.94C130.319 18.2 130.259 17.66 130.139 17.32C130.039 16.96 129.819 16.72 129.479 16.6C129.159 16.46 128.689 16.38 128.069 16.36V15.76C129.149 15.78 130.319 15.8 131.579 15.82C132.839 15.84 134.029 15.85 135.149 15.85C136.269 15.85 137.169 15.85 137.849 15.85C138.769 15.85 139.809 15.85 140.969 15.85C142.149 15.83 143.199 15.8 144.119 15.76ZM139.649 26.14C139.649 26.14 139.649 26.24 139.649 26.44C139.649 26.64 139.649 26.74 139.649 26.74H134.189C134.189 26.74 134.189 26.64 134.189 26.44C134.189 26.24 134.189 26.14 134.189 26.14H139.649ZM140.399 22.18C140.319 23.32 140.279 24.19 140.279 24.79C140.299 25.39 140.309 25.94 140.309 26.44C140.309 26.94 140.319 27.49 140.339 28.09C140.359 28.69 140.409 29.56 140.489 30.7H139.799C139.679 30 139.489 29.35 139.229 28.75C138.969 28.15 138.589 27.67 138.089 27.31C137.589 26.93 136.939 26.74 136.139 26.74V26.14C136.939 26.14 137.579 25.92 138.059 25.48C138.539 25.04 138.899 24.52 139.139 23.92C139.399 23.3 139.589 22.72 139.709 22.18H140.399ZM148.345 37.21C147.005 37.21 146.035 36.86 145.435 36.16C144.835 35.46 144.535 34.61 144.535 33.61C144.535 32.75 144.725 32.05 145.105 31.51C145.505 30.97 146.015 30.53 146.635 30.19C147.255 29.83 147.905 29.54 148.585 29.32C149.285 29.08 149.945 28.85 150.565 28.63C151.205 28.39 151.715 28.12 152.095 27.82C152.495 27.52 152.695 27.14 152.695 26.68V24.34C152.695 23.82 152.605 23.36 152.425 22.96C152.265 22.54 152.005 22.22 151.645 22C151.305 21.78 150.855 21.67 150.295 21.67C149.895 21.67 149.495 21.73 149.095 21.85C148.695 21.95 148.365 22.13 148.105 22.39C148.665 22.59 149.095 22.9 149.395 23.32C149.715 23.72 149.875 24.18 149.875 24.7C149.875 25.38 149.635 25.92 149.155 26.32C148.695 26.72 148.145 26.92 147.505 26.92C146.785 26.92 146.235 26.7 145.855 26.26C145.495 25.8 145.315 25.25 145.315 24.61C145.315 24.03 145.455 23.55 145.735 23.17C146.035 22.79 146.445 22.43 146.965 22.09C147.525 21.77 148.195 21.52 148.975 21.34C149.775 21.16 150.635 21.07 151.555 21.07C152.475 21.07 153.305 21.17 154.045 21.37C154.785 21.55 155.405 21.89 155.905 22.39C156.365 22.85 156.665 23.42 156.805 24.1C156.945 24.76 157.015 25.6 157.015 26.62V34.78C157.015 35.26 157.065 35.6 157.165 35.8C157.265 36 157.435 36.1 157.675 36.1C157.875 36.1 158.065 36.05 158.245 35.95C158.425 35.85 158.595 35.73 158.755 35.59L159.055 36.1C158.635 36.46 158.145 36.74 157.585 36.94C157.045 37.12 156.435 37.21 155.755 37.21C154.555 37.21 153.755 36.97 153.355 36.49C152.975 35.99 152.775 35.42 152.755 34.78C152.255 35.6 151.635 36.21 150.895 36.61C150.175 37.01 149.325 37.21 148.345 37.21ZM150.655 35.29C151.035 35.29 151.385 35.2 151.705 35.02C152.045 34.84 152.375 34.52 152.695 34.06V27.91C152.455 28.31 152.115 28.65 151.675 28.93C151.255 29.19 150.815 29.48 150.355 29.8C149.915 30.1 149.545 30.49 149.245 30.97C148.945 31.45 148.795 32.09 148.795 32.89C148.795 33.75 148.975 34.37 149.335 34.75C149.695 35.11 150.135 35.29 150.655 35.29ZM169.593 21.07C170.233 21.07 170.753 21.21 171.153 21.49C171.553 21.75 171.843 22.09 172.023 22.51C172.223 22.93 172.323 23.37 172.323 23.83C172.323 24.57 172.103 25.18 171.663 25.66C171.243 26.12 170.683 26.35 169.983 26.35C169.283 26.35 168.733 26.18 168.333 25.84C167.953 25.48 167.763 25.01 167.763 24.43C167.763 23.87 167.883 23.41 168.123 23.05C168.383 22.67 168.703 22.35 169.083 22.09C168.803 22.01 168.523 22.02 168.243 22.12C167.723 22.2 167.253 22.45 166.833 22.87C166.433 23.27 166.113 23.75 165.873 24.31C165.633 24.87 165.513 25.42 165.513 25.96V33.91C165.513 34.87 165.743 35.52 166.203 35.86C166.683 36.2 167.393 36.37 168.333 36.37V37C167.873 36.98 167.203 36.96 166.323 36.94C165.443 36.9 164.523 36.88 163.563 36.88C162.763 36.88 161.953 36.9 161.133 36.94C160.313 36.96 159.693 36.98 159.273 37V36.37C159.973 36.37 160.463 36.22 160.743 35.92C161.043 35.62 161.193 35.05 161.193 34.21V24.76C161.193 23.86 161.053 23.2 160.773 22.78C160.513 22.34 160.013 22.12 159.273 22.12V21.49C159.913 21.55 160.533 21.58 161.133 21.58C161.973 21.58 162.753 21.55 163.473 21.49C164.213 21.41 164.893 21.3 165.513 21.16V23.95C165.753 23.41 166.073 22.92 166.473 22.48C166.873 22.04 167.333 21.7 167.853 21.46C168.373 21.2 168.953 21.07 169.593 21.07ZM183.526 21.07C184.366 21.07 185.046 21.18 185.566 21.4C186.086 21.6 186.506 21.88 186.826 22.24C187.146 22.62 187.376 23.12 187.516 23.74C187.656 24.34 187.726 25.14 187.726 26.14V34.21C187.726 35.05 187.856 35.62 188.116 35.92C188.376 36.22 188.826 36.37 189.466 36.37V37C189.106 36.98 188.556 36.96 187.816 36.94C187.096 36.9 186.386 36.88 185.686 36.88C184.966 36.88 184.256 36.9 183.556 36.94C182.856 36.96 182.326 36.98 181.966 37V36.37C182.506 36.37 182.876 36.22 183.076 35.92C183.296 35.62 183.406 35.05 183.406 34.21V24.88C183.406 24.38 183.366 23.95 183.286 23.59C183.206 23.21 183.046 22.92 182.806 22.72C182.586 22.5 182.246 22.39 181.786 22.39C181.266 22.39 180.786 22.54 180.346 22.84C179.906 23.14 179.546 23.56 179.266 24.1C179.006 24.62 178.876 25.21 178.876 25.87V34.21C178.876 35.05 178.986 35.62 179.206 35.92C179.426 36.22 179.796 36.37 180.316 36.37V37C179.996 36.98 179.496 36.96 178.816 36.94C178.156 36.9 177.476 36.88 176.776 36.88C176.016 36.88 175.236 36.9 174.436 36.94C173.636 36.96 173.036 36.98 172.636 37V36.37C173.336 36.37 173.826 36.22 174.106 35.92C174.406 35.62 174.556 35.05 174.556 34.21V24.76C174.556 23.86 174.416 23.2 174.136 22.78C173.876 22.34 173.376 22.12 172.636 22.12V21.49C173.276 21.55 173.896 21.58 174.496 21.58C175.336 21.58 176.116 21.55 176.836 21.49C177.576 21.41 178.256 21.3 178.876 21.16V23.86C179.356 22.86 180.006 22.15 180.826 21.73C181.646 21.29 182.546 21.07 183.526 21.07ZM192.556 21.07C193.396 21.07 194.076 21.18 194.596 21.4C195.116 21.6 195.536 21.88 195.856 22.24C196.176 22.62 196.406 23.12 196.546 23.74C196.686 24.34 196.756 25.14 196.756 26.14V34.21C196.756 35.05 196.896 35.62 197.176 35.92C197.476 36.22 197.976 36.37 198.676 36.37V37C198.296 36.98 197.726 36.96 196.966 36.94C196.206 36.9 195.456 36.88 194.716 36.88C193.996 36.88 193.286 36.9 192.586 36.94C191.886 36.96 191.356 36.98 190.996 37V36.37C191.536 36.37 191.906 36.22 192.106 35.92C192.326 35.62 192.436 35.05 192.436 34.21V24.88C192.436 24.38 192.386 23.95 192.286 23.59C192.206 23.21 192.036 22.92 191.776 22.72C191.536 22.5 191.156 22.39 190.636 22.39C189.856 22.39 189.176 22.74 188.596 23.44C188.016 24.12 187.716 24.96 187.696 25.96L187.546 24.13C188.086 22.93 188.796 22.12 189.676 21.7C190.576 21.28 191.536 21.07 192.556 21.07Z" fill="#032D23"/>
<g clip-path="url(#clip0)">
<path d="M24.5586 0.602052C20.1082 -0.542463 15.4928 -0.205657 11.1545 2.93474C9.03818 4.46596 7.57234 6.72692 6.29324 9.00659C3.37091 14.2271 -0.874096 21.9019 0.159146 28.0579C0.616635 30.7929 2.11981 33.2254 3.66345 35.5269C8.7643 43.1424 15.2874 50.7081 25.2899 49.9503C30.3441 49.5667 35.1057 47.4554 39.5406 44.9949C45.4133 41.7391 52.1013 36.9552 52.8794 29.7014C53.7881 21.2283 44.8873 13.4973 38.9866 8.71657C34.8941 5.40465 29.8431 1.96175 24.5586 0.602052Z" fill="#032D23"/>
<path d="M25.0125 7.30993C24.4367 7.17271 23.8579 7.0542 23.2697 6.98871C22.6815 6.94194 22.0933 6.90451 21.5082 6.95441C20.9262 7.00431 20.3442 7.07603 19.7871 7.2382C19.5071 7.30369 19.2332 7.4066 18.9593 7.49704C18.6917 7.60931 18.424 7.7091 18.1688 7.8432C17.6491 8.08333 17.1698 8.40143 16.7123 8.72888C16.4914 8.90663 16.2642 9.07192 16.0557 9.26839L15.7413 9.54906C15.648 9.64573 15.5484 9.73617 15.4581 9.83597C14.7236 10.6187 14.1728 11.5668 13.6842 12.5772C13.4383 13.0855 13.2111 13.6032 12.9746 14.1458L12.2526 15.7831L11.5399 17.3923L11.1882 18.1875C11.0762 18.4526 10.9704 18.7208 10.849 18.9796C9.96513 21.0784 9.17152 23.1741 8.88209 25.1824L8.82918 25.5598L8.80429 25.9278L8.77628 26.2989L8.78872 26.6575C8.77316 27.144 8.85719 27.6118 8.95678 28.1139C9.17463 29.1087 9.61345 30.141 10.1363 31.1763C10.6654 32.2179 11.2598 33.2658 11.8791 34.2699C12.514 35.2648 13.1862 36.2378 13.9456 37.1328C14.1292 37.3636 14.3346 37.5725 14.5276 37.7908C14.7236 38.0091 14.9197 38.2274 15.1344 38.4239L15.7662 39.0289C15.9841 39.2222 16.2144 39.4 16.4353 39.5871C17.341 40.3075 18.3089 40.953 19.3608 41.3959C19.4915 41.4551 19.6191 41.5175 19.7467 41.5736L20.1482 41.7108C20.4189 41.795 20.6772 41.9073 20.9542 41.9697L21.7758 42.1537C22.0466 42.2192 22.3298 42.2285 22.6068 42.2628C23.1545 42.3533 23.7178 42.3003 24.2656 42.3096L25.0903 42.2161L25.5011 42.1724L25.915 42.0976C27.0136 41.8917 28.0842 41.5424 29.1299 41.1339C29.6527 40.925 30.1694 40.7004 30.6798 40.4509C31.1933 40.2171 31.7006 39.952 32.2047 39.6869C33.2068 39.138 34.2027 38.558 35.1986 37.9561C36.1852 37.3542 37.1437 36.7336 38.04 36.0631C39.8295 34.7315 41.3981 33.2034 42.3909 31.5318C42.8826 30.6929 43.2343 29.8353 43.4179 28.9466C43.4459 28.722 43.4801 28.4975 43.5206 28.2761C43.5424 28.1638 43.5393 28.0609 43.5517 27.9517C43.5642 27.8457 43.5673 27.7365 43.5642 27.6274C43.5735 27.4122 43.5548 27.1908 43.5424 26.9725C43.5112 26.7511 43.4926 26.5297 43.449 26.3051C43.3027 25.407 42.9511 24.487 42.4998 23.567C42.2695 23.1086 42.0143 22.6502 41.7249 22.198C41.4385 21.7489 41.1398 21.2905 40.8099 20.8476C39.509 19.0638 38.0027 17.2925 36.3968 15.5492C34.7723 13.7965 33.1446 12.0564 31.2742 10.5938C29.4131 9.12493 27.3062 7.92428 25.0125 7.30993ZM25.1214 6.8858C27.4804 7.49704 29.7243 8.47627 31.9028 9.59584C32.9921 10.1572 34.0751 10.7466 35.1395 11.3734C36.2008 12.0096 37.2371 12.6489 38.2672 13.3288C40.3213 14.6947 42.338 16.2259 44.0808 18.1719C44.9522 19.1418 45.7551 20.2146 46.446 21.409C46.7946 22.0015 47.1089 22.6346 47.3735 23.3019C47.6442 23.9662 47.859 24.671 48.0146 25.4007C48.3382 26.8509 48.304 28.4819 47.9897 29.9258C47.6598 31.3946 47.0467 32.7761 46.25 33.9674C45.4626 35.1681 44.5134 36.191 43.5175 37.0922C42.5154 37.9904 41.4541 38.7638 40.3742 39.4592C39.2911 40.1547 38.1894 40.7753 37.0784 41.3397C35.9736 41.9042 34.8345 42.4281 33.6519 42.8772C31.2991 43.7909 28.7502 44.4115 26.164 44.4708L25.6816 44.4801L25.1899 44.4583L24.2158 44.4084L23.251 44.265C23.0923 44.24 22.9304 44.2275 22.7717 44.187L22.2987 44.0716C21.0351 43.7972 19.8401 43.2982 18.7228 42.7088C16.4789 41.5206 14.6147 39.8397 12.9092 38.0684C12.7007 37.8407 12.4891 37.6193 12.2744 37.3979C12.0627 37.1733 11.8667 36.9394 11.6581 36.7118C11.2349 36.2627 10.8552 35.7856 10.4444 35.324C9.65702 34.3791 8.87898 33.4498 8.11027 32.4674C7.34779 31.4757 6.59775 30.3936 6.04067 29.1087C5.7668 28.4694 5.5365 27.7677 5.42135 27.0536L5.3311 26.5172L5.28753 25.987L5.25018 25.4538L5.25952 24.9298C5.28753 23.5296 5.54895 22.198 5.92241 20.9412C6.29587 19.6813 6.79071 18.4931 7.34468 17.358C7.62477 16.7935 7.92665 16.2415 8.22853 15.6989C8.54598 15.1625 8.86342 14.6323 9.19642 14.1146C9.53253 13.6001 9.86865 13.0918 10.2172 12.5959C10.5658 12.0876 10.9455 11.5668 11.3532 11.0647C12.1685 10.0605 13.1209 9.09375 14.2537 8.35465C14.3906 8.26109 14.54 8.17689 14.6832 8.08957L15.1127 7.86191C15.3928 7.70598 15.6946 7.58124 15.9841 7.44714C16.5754 7.19454 17.1729 6.97312 17.7891 6.81096C19.0122 6.47415 20.2664 6.34005 21.4957 6.36812C22.7282 6.39619 23.9419 6.58642 25.1214 6.8858Z" fill="#AAA713"/>
<path d="M29.7275 32.5547C27.3436 31.7563 26.5282 29.1274 24.1007 28.5692C23.2013 28.3633 22.1401 28.4974 21.2126 28.6939C19.8495 28.9808 18.8723 29.1617 17.4687 29.0681C19.1991 30.2064 19.4916 32.1119 21.6483 32.7668C22.5664 33.0443 23.4036 33.3842 24.2688 33.8052C25.3176 34.3167 26.0272 34.0329 27.0573 33.6618C27.9194 33.3499 28.8904 33.0506 29.7275 32.5547Z" fill="#4EB49C"/>
<path d="M29.8334 30.4902C26.8395 30.7178 26.9484 25.8466 25.7222 24.2312C24.6516 22.8216 23.0333 22.5347 21.6515 21.5181C20.5933 20.7353 20.1296 19.8777 19.862 18.6147C19.7344 18.0066 19.7562 17.2456 19.4387 16.8683C21.6266 18.8548 25.4452 17.8194 27.0324 20.7384C27.8042 22.1574 28.1372 23.1397 29.4879 24.0691C30.795 24.9672 31.0004 25.6595 30.7359 27.2032C30.5492 28.3072 30.3998 29.5234 29.8334 30.4902Z" fill="#4EB49C"/>
<path d="M31.5823 32.8759C30.0854 31.8281 32.211 29.6357 32.7432 28.697C33.0295 28.1949 33.3407 27.5338 33.4434 26.9569C33.5461 26.3768 33.322 25.9402 33.2349 25.3913C32.9486 23.5919 34.2432 22.3102 35.0057 20.8507C35.8118 22.9589 37.0318 24.7676 36.6583 27.1471C36.3409 29.1679 35.0057 30.8301 33.3376 31.9029C32.8241 32.2366 32.1581 32.7262 31.5823 32.8759Z" fill="#4EB49C"/>
</g>
<defs>
<clipPath id="clip0">
<rect width="52.9412" height="50" fill="white"/>
</clipPath>
</defs>
</svg>
